# Blender 3.3.0
# www.blender.org
mtllib Cammy.mtl
o Cube
v 1.000000 1.000000 -0.441837
v 1.000000 -1.000000 -0.441837
v 1.000000 1.000000 1.000000
v 1.000000 -1.000000 1.000000
v -1.000000 1.000000 -0.441837
v -1.000000 -1.000000 -0.441837
v -1.000000 1.000000 1.000000
v -1.000000 -1.000000 1.000000
v 0.757728 -0.757728 -0.798451
v -0.757728 -0.757728 -0.798451
v 0.757728 0.757728 -0.798451
v -0.757728 0.757728 -0.798451
v 1.000000 -1.000000 -1.163544
v -1.000000 -1.000000 -1.163544
v 1.000000 1.000000 -1.163544
v -1.000000 1.000000 -1.163544
v 1.000000 -1.000000 -1.479665
v -1.000000 -1.000000 -1.479665
v 1.000000 1.000000 -1.479665
v -1.000000 1.000000 -1.479665
vn -0.0000 1.0000 -0.0000
vn -0.0000 -0.0000 1.0000
vn -1.0000 -0.0000 -0.0000
vn -0.0000 -1.0000 -0.0000
vn 1.0000 -0.0000 -0.0000
vn -0.8272 -0.0000 -0.5620
vn -0.8332 -0.0000 0.5529
vn -0.0000 -0.8272 -0.5620
vn -0.0000 0.8272 -0.5620
vn 0.8272 -0.0000 -0.5620
vn -0.0000 -0.8332 0.5529
vn -0.0000 0.8332 0.5529
vn 0.8332 -0.0000 0.5529
vn -0.0000 -0.0000 -1.0000
vt 0.625000 0.500000
vt 0.375000 0.500000
vt 0.625000 0.750000
vt 0.375000 0.750000
vt 0.625000 0.250000
vt 0.875000 0.500000
vt 0.375000 0.250000
vt 0.125000 0.500000
vt 0.875000 0.750000
vt 0.625000 1.000000
vt 0.625000 0.000000
vt 0.375000 1.000000
vt 0.375000 0.000000
vt 0.125000 0.750000
vt 0.375000 0.500000
vt 0.375000 0.250000
vt 0.125000 0.500000
vt 0.625000 0.500000
vt 0.625000 0.250000
vt 0.875000 0.500000
vt 0.375000 0.500000
vt 0.375000 0.250000
vt 0.125000 0.500000
vt 0.625000 0.500000
vt 0.875000 0.500000
vt 0.625000 0.250000
vt 0.375000 0.500000
vt 0.375000 0.250000
vt 0.125000 0.500000
vt 0.625000 0.500000
vt 0.875000 0.500000
vt 0.625000 0.250000
s 0
usemtl Material
f 1/1/1 5/6/1 7/9/1 3/3/1
f 4/4/2 3/3/2 7/10/2 8/12/2
f 8/13/3 7/11/3 5/5/3 6/7/3
f 6/8/4 2/2/4 4/4/4 8/14/4
f 2/2/5 1/1/5 3/3/5 4/4/5
f 6/7/6 5/5/6 12/19/6 10/16/6
f 10/16/7 12/19/7 16/26/7 14/22/7
f 2/2/8 6/8/8 10/17/8 9/15/8
f 5/6/9 1/1/9 11/18/9 12/20/9
f 1/1/10 2/2/10 9/15/10 11/18/10
f 16/25/1 15/24/1 19/30/1 20/31/1
f 9/15/11 10/17/11 14/23/11 13/21/11
f 12/20/12 11/18/12 15/24/12 16/25/12
f 11/18/13 9/15/13 13/21/13 15/24/13
f 18/28/14 20/32/14 19/30/14 17/27/14
f 15/24/5 13/21/5 17/27/5 19/30/5
f 14/22/3 16/26/3 20/32/3 18/28/3
f 13/21/4 14/23/4 18/29/4 17/27/4
